<svg xmlns="http://www.w3.org/2000/svg" width="96.7" height="69.84" viewBox="0 0 96.7 69.84"><defs><style>.cls-1{fill:#fff;}</style></defs><g id="Layer_2" data-name="Layer 2"><g id="Layer_1-2" data-name="Layer 1"><path class="cls-1" d="M81.09,9.65H62.69a3.17,3.17,0,0,0-3.17,3.17V48.75a3.17,3.17,0,0,0,3.17,3.17h18.4a3.18,3.18,0,0,0,3.17-3.17V12.82A3.18,3.18,0,0,0,81.09,9.65ZM74.73,45.44A2.71,2.71,0,1,1,72,42.72,2.71,2.71,0,0,1,74.73,45.44Zm-12-34.55h18.4A1.93,1.93,0,0,1,83,12.82v26H60.76v-26A1.92,1.92,0,0,1,62.69,10.89Z"/><path class="cls-1" d="M88.35,27.56a.62.62,0,0,0-.87,0,.63.63,0,0,0,0,.88c.09.08,2.18,2.05-.07,4.93a.62.62,0,0,0,.11.87.58.58,0,0,0,.38.13.6.6,0,0,0,.48-.24C91.38,30.39,88.38,27.59,88.35,27.56Z"/><path class="cls-1" d="M89.53,22.33a.62.62,0,1,0-.87.88c.3.29,7.29,7.38,0,15.26a.62.62,0,0,0,0,.87.62.62,0,0,0,.88,0C97.66,30.56,89.61,22.41,89.53,22.33Z"/><path class="cls-1" d="M90.58,16.52a.62.62,0,0,0-.87,0,.63.63,0,0,0,0,.88c.53.52,12.83,13,0,26.87a.61.61,0,0,0,.45,1,.6.6,0,0,0,.45-.19C104.27,30.38,90.72,16.65,90.58,16.52Z"/><path class="cls-1" d="M41.41,26.57a14.49,14.49,0,0,0-2.09.17V16.31h0a.53.53,0,0,0-.09-.3s0,0,0-.07,0-.07-.08-.1l-6.62-5.51V4.49h-7L20.26.14a.62.62,0,0,0-.79,0L14.13,4.49H6.64V10.6L.23,15.83a.81.81,0,0,0-.09.1L.09,16a.62.62,0,0,0-.09.3H0V38.73a.45.45,0,0,0,0,.2.34.34,0,0,0,.09.14s0,0,0,.06h0a.86.86,0,0,0,.2.13.69.69,0,0,0,.24,0H27.14a13.69,13.69,0,0,0,.42,5.39.5.5,0,0,0,0,.12l.07.25c0,.1.07.21.11.32.8,2.45,4.13,11.21,13.08,20.78a.61.61,0,0,0,.45.2h0a.6.6,0,0,0,.45-.21c3.86-4.3,11-13.52,13.29-20.73.14-.42.26-.86.36-1.3l.11-.48a11.16,11.16,0,0,0,.26-2.72A14.38,14.38,0,0,0,41.41,26.57Zm-4.32.67c-.38.12-.74.26-1.11.41l-.45.2-.66.31-.49.26-.61.37c-.29.19-.58.39-.85.59s-.27.19-.39.29l-.58.48-.27.25-.29.26L27.56,26.9l10.53-9.23V27l-.71.2ZM21.76,17h5.6a.62.62,0,0,1,.62.62.62.62,0,0,1-.62.62h-5.6a.62.62,0,0,1-.62-.62A.61.61,0,0,1,21.76,17Zm-.62-3.34a.62.62,0,0,1,.62-.62h5.6a.62.62,0,0,1,.62.62.62.62,0,0,1-.62.62h-5.6A.61.61,0,0,1,21.14,13.65ZM7,22.73H7l4.74,4.16L1.24,37.22V17.67ZM32.54,12l5.21,4.34-5.21,4.57ZM19.86,1.42l3.68,3.07H16.09ZM12,9.12H27.36a.62.62,0,0,1,0,1.24H12a.62.62,0,0,1,0-1.24ZM12,13h5.61a.62.62,0,0,1,.62.62.62.62,0,0,1-.62.62H12a.62.62,0,0,1-.62-.62A.62.62,0,0,1,12,13Zm0,4h5.61a.62.62,0,0,1,.62.62.62.62,0,0,1-.62.62H12a.62.62,0,0,1-.62-.62A.62.62,0,0,1,12,17Zm0,4H27.36a.62.62,0,0,1,0,1.24H12a.62.62,0,1,1,0-1.24Zm-5.39-.18L1.58,16.32l5.06-4.13ZM2.13,38.08,12.69,27.71l6.56,5.76a.64.64,0,0,0,.82,0l6.55-5.75,3.93,3.85c-.25.28-.47.57-.69.86l-.08.11c-.18.25-.36.51-.53.78l0,.07A14,14,0,0,0,27.92,36l0,.1a14.08,14.08,0,0,0-.56,1.95Zm52.16,5.34,0,.18-.06.26c-.1.41-.2.8-.34,1.2-2.13,6.75-8.7,15.36-12.58,19.78C32.86,55.65,29.71,47.36,28.93,45l-.09-.28,0-.13a.36.36,0,0,0,0-.1,13.17,13.17,0,0,1-.5-3.55,12.61,12.61,0,0,1,.19-2.14h0a13,13,0,0,1,1.7-4.62l0-.06a13.37,13.37,0,0,1,2.34-2.84l.24-.21c.17-.16.36-.31.54-.46l.36-.26c.17-.13.34-.26.52-.38l.76-.46.51-.27.65-.31.44-.18.68-.25.42-.14.84-.21.31-.08a12.93,12.93,0,0,1,2.59-.26A13.14,13.14,0,0,1,54.53,41,9.39,9.39,0,0,1,54.29,43.42Z"/><path class="cls-1" d="M41.22,34.64a6.3,6.3,0,1,0,6.3,6.3A6.3,6.3,0,0,0,41.22,34.64Z"/><path class="cls-1" d="M52.22,68.6H30.37a.61.61,0,0,0-.62.62.62.62,0,0,0,.62.62H52.22a.61.61,0,0,0,.61-.62A.61.61,0,0,0,52.22,68.6Z"/></g></g></svg>