<svg xmlns="http://www.w3.org/2000/svg" width="91.68" height="74.75" viewBox="0 0 91.68 74.75"><defs><style>.cls-1{fill:#fff;}</style></defs><g id="Layer_2" data-name="Layer 2"><g id="Layer_1-2" data-name="Layer 1"><path class="cls-1" d="M61,39.89h3v.75a.91.91,0,0,0,.91.91h.4V57.7a.51.51,0,0,0,.16.37l2.4,2.18a.46.46,0,0,0,.33.13.56.56,0,0,0,.32-.11l2.68-2.14a.48.48,0,0,0,.18-.39v-2a.52.52,0,0,0,0-.24l-1.08-2.07,1.06-1.71a.48.48,0,0,0,.07-.26v-.58a.43.43,0,0,0-.08-.27l-.86-1.31V47.84l.82-.91a.5.5,0,0,0,.12-.33v-.5a.5.5,0,0,0-.07-.27l-.73-1.13.66-.68a.5.5,0,0,0,.14-.35V41.55h.4a.91.91,0,0,0,.91-.91v-.75h3a1.29,1.29,0,0,0,1.29-1.29V24.31A1.29,1.29,0,0,0,75.62,23H61a1.28,1.28,0,0,0-1.28,1.29V38.6A1.28,1.28,0,0,0,61,39.89Zm-.28-15.58A.29.29,0,0,1,61,24H75.62a.29.29,0,0,1,.29.29V38.6a.29.29,0,0,1-.29.29H72.16a.5.5,0,0,0-.5.5v1.16H68.32a.5.5,0,0,0-.5.5V58.88l-1.54-1.4V41.05a.5.5,0,0,0-.5-.5H65V39.39a.5.5,0,0,0-.5-.5H61a.29.29,0,0,1-.28-.29Z"/><path class="cls-1" d="M65.71,28.87h4.73a1.59,1.59,0,1,0,0-3.18H65.71a1.59,1.59,0,1,0,0,3.18Zm0-2.18h4.73a.59.59,0,1,1,0,1.18H65.71a.59.59,0,1,1,0-1.18Z"/><path class="cls-1" d="M51.17,58.35a8.89,8.89,0,0,0,2.07-17.54V38.33L50.75,36.6l2.49-1.52V32l-2.49-1.73,2.49-1.52V26.07L51.72,25l1.52-.92V22.54l-1.92-2-3.6,2.32V41.26a8.91,8.91,0,0,0-5.35,7H37.93v-31a.46.46,0,0,0-.21-.4L21.65,5.35a.48.48,0,0,0-.58,0L5,16.82a.49.49,0,0,0-.21.4v31H1.51a.5.5,0,0,0-.5.5v4.6a.5.5,0,0,0,.5.5H43.43A8.88,8.88,0,0,0,51.17,58.35Zm0-7.49a2.55,2.55,0,1,1-2.55,2.55A2.56,2.56,0,0,1,51.17,50.86ZM5.79,17.48,21.36,6.37,36.93,17.48V48.23H19.78V33.57H9.42V48.23H5.79ZM2,52.83v-3.6H42.3a1.79,1.79,0,0,0,0,.23,9,9,0,0,0,.66,3.37Z"/><polygon class="cls-1" points="21.43 3.42 40.98 17.62 42.73 15.46 21.44 0 21.44 0 21.44 0 21.44 0 21.44 0 0 15.27 1.73 17.45 21.43 3.42"/><path class="cls-1" d="M9.42,30.34H19.78a.5.5,0,0,0,.5-.5V20.59a.5.5,0,0,0-.5-.5H9.42a.5.5,0,0,0-.5.5v9.25A.5.5,0,0,0,9.42,30.34Zm.5-4.63H14.1v3.62H9.92Zm5.18,3.63V25.72h4.18v3.63Zm4.18-4.61H15.1V21.09h4.18ZM14.1,21.09v3.63H9.92V21.09Z"/><path class="cls-1" d="M23.17,30.25H33.53a.5.5,0,0,0,.5-.5V20.5a.5.5,0,0,0-.5-.5H23.17a.5.5,0,0,0-.5.5v9.25A.5.5,0,0,0,23.17,30.25Zm.5-4.66a.4.4,0,0,0,.15,0h4v3.63H23.67Zm5.18,3.66V25.62H33v3.63ZM33,24.62H28.85V21H33ZM27.85,21v3.62h-4l-.15,0V21Z"/><path class="cls-1" d="M33.63,33.07H23.26a.51.51,0,0,0-.5.5v9.25a.5.5,0,0,0,.5.5H33.63a.5.5,0,0,0,.5-.5V33.57A.51.51,0,0,0,33.63,33.07Zm-.5,4.64H28.94V34.07h4.19Zm-5.19-3.64V37.7H23.76V34.07Zm-4.18,4.62h4.18v3.62H23.76Zm5.18,3.63V38.7h4.19v3.63Z"/><path class="cls-1" d="M89.2,63.28H87.78V60.71h1.44a1,1,0,0,0,1-1V58a1,1,0,0,0-1-1H77.82a1,1,0,0,0-1,1v1.74a1,1,0,0,0,1,1h1.44v2.57H51.38a3.65,3.65,0,0,0-5.2,0h-2.9a9,9,0,1,0,0,5h2.66a3.65,3.65,0,0,0,5.67,0H89.2a2.48,2.48,0,1,0,0-5ZM77.85,59.74l0-1.7,11.36,0,0,1.71H86.78v3.57H80.26V59.71ZM89.2,67.23H51.11l-.15.21a2.66,2.66,0,0,1-4.37,0l-.15-.21H42.5l-.09.39a8,8,0,1,1,0-3.72l.09.38h4.13l.15-.17a2.71,2.71,0,0,1,4,0l.15.17H89.2a1.48,1.48,0,1,1,0,3Z"/><path class="cls-1" d="M34.63,59.17a6.59,6.59,0,1,0,6.59,6.59A6.59,6.59,0,0,0,34.63,59.17Zm0,12.18a5.59,5.59,0,1,1,5.59-5.59A5.59,5.59,0,0,1,34.63,71.35Z"/></g></g></svg>