<svg xmlns="http://www.w3.org/2000/svg" width="85.62" height="75.26" viewBox="0 0 85.62 75.26"><defs><style>.cls-1{fill:#fff;}</style></defs><g id="Layer_2" data-name="Layer 2"><g id="Layer_1-2" data-name="Layer 1"><path class="cls-1" d="M85.09,43.8H84.5v-4a2.07,2.07,0,0,0-1.93-2.06V34.62a2.09,2.09,0,0,0-.54-1.4l2.52-4.37a.53.53,0,0,0-.2-.73L73.21,21.68V9.54A2.52,2.52,0,0,0,70.69,7H38.1V3.17A3.17,3.17,0,0,0,34.93,0H3.17A3.17,3.17,0,0,0,0,3.17V63.71a3.17,3.17,0,0,0,3.17,3.17H9.35l2.43,2.31a2.29,2.29,0,0,1,.71,1.68v3.77a.61.61,0,0,0,.62.62H27.87a.62.62,0,0,0,.62-.62V71a4.13,4.13,0,0,1,.15-1.11l.79-3h5.5a3.17,3.17,0,0,0,3.17-3.17V30.4H56v2.14H54.67a3.17,3.17,0,0,0-2.33,1,3.12,3.12,0,0,0-.8,2s0,.06,0,.09V55.85a2.09,2.09,0,0,0,2.08,2.08H82.42a2.08,2.08,0,0,0,2.08-2.08v-4h.59a.54.54,0,0,0,.53-.54v-7A.54.54,0,0,0,85.09,43.8ZM81.5,34.62v3.14H79.4l2-3.51A.94.94,0,0,1,81.5,34.62Zm-.62-1.56h0l-2.71,4.7H76.57l4.84-8.45-8.1-4.71L65.76,37.76H64l6.33-11h0l2.39-4.14,10.62,6.13ZM57.07,22.45H69.33v3.93L67.9,28.87V23.94l-9.37-.06V37.76H57.07ZM70.69,8.09a1.45,1.45,0,0,1,1.44,1.45v2.51h-34v-4ZM16.5,45.22A2.93,2.93,0,0,0,14,42.85a2.89,2.89,0,0,0-3.12,2.37H6.36V41H31.92v4.25ZM3.17,1.24H34.93a1.93,1.93,0,0,1,1.93,1.93V48.94H16.57V46.29H32.45a.54.54,0,0,0,.54-.54V40.43a.54.54,0,0,0-.54-.53H5.82a.53.53,0,0,0-.53.53v5.32a.54.54,0,0,0,.53.54h5v2.65H1.24V3.17A1.92,1.92,0,0,1,3.17,1.24ZM27.44,69.53A5.67,5.67,0,0,0,27.25,71V74H13.73V70.87a3.59,3.59,0,0,0-1.1-2.58l-6-5.76a1.57,1.57,0,0,1-.48-1.21,1.6,1.6,0,0,1,.54-1.18A1.75,1.75,0,0,1,9,60.29l2,2A.62.62,0,0,0,12,61.8V45.73a1.65,1.65,0,0,1,.54-1.23,1.69,1.69,0,0,1,1.27-.42,1.72,1.72,0,0,1,1.49,1.75V54a.62.62,0,1,0,1.24,0,1.65,1.65,0,0,1,1.82-1.64,1.71,1.71,0,0,1,1.48,1.74v1.15a.62.62,0,1,0,1.24,0,1.67,1.67,0,0,1,.54-1.22,1.62,1.62,0,0,1,1.28-.42,1.72,1.72,0,0,1,1.49,1.74v2.13a.62.62,0,0,0,1.23,0,1.66,1.66,0,0,1,1.82-1.65A1.73,1.73,0,0,1,29,57.6V62a14,14,0,0,1-.47,3.58l-.13.5h0ZM38.1,29.33V25H49.33a.54.54,0,0,0,0-1.07H38.1V16h34v5.57l-.06.08-1.66,2.88V21.91a.54.54,0,0,0-.54-.53H56.54a.54.54,0,0,0-.54.53v2H52.09a.54.54,0,1,0,0,1.07H56v4.35Zm16.57,4.29H56v4.14H54.78a2.21,2.21,0,0,1-1.94-1.12v0a1.45,1.45,0,0,1-.11-.26,1.09,1.09,0,0,1,0-.17,1.16,1.16,0,0,1,0-.18,1.8,1.8,0,0,1,0-.22,2.06,2.06,0,0,1,.52-1.5A2.1,2.1,0,0,1,54.67,33.62ZM83.43,55.85a1,1,0,0,1-1,1H53.6a1,1,0,0,1-1-1V38.05a3.1,3.1,0,0,0,2.07.78H82.42a1,1,0,0,1,1,1v4h-4.3a4,4,0,0,0,0,8.09h4.3Zm1.12-5H79.13a3,3,0,0,1,0-5.94h5.42Z"/><path class="cls-1" d="M79.11,46.1a1.75,1.75,0,1,0,1.74,1.74A1.74,1.74,0,0,0,79.11,46.1Z"/><path class="cls-1" d="M6.17,33.68H26.26a.62.62,0,1,0,0-1.24H6.17a.62.62,0,1,0,0,1.24Z"/><path class="cls-1" d="M6.17,37.21H22.59a.62.62,0,1,0,0-1.24H6.17a.62.62,0,1,0,0,1.24Z"/><path class="cls-1" d="M22.3,13.47a2.78,2.78,0,0,0-5.55,0v1.6H22.3Z"/><path class="cls-1" d="M20.34,19.53a.8.8,0,0,0-1.6,0,.79.79,0,0,0,.33.64.51.51,0,0,1,.2.51l-.49,2.64h1.53l-.49-2.64a.51.51,0,0,1,.2-.51A.81.81,0,0,0,20.34,19.53Z"/><path class="cls-1" d="M20.91,16.1H18.18a3.57,3.57,0,0,0-3.56,3.57v2.72A3.58,3.58,0,0,0,18.18,26h2.73a3.58,3.58,0,0,0,3.56-3.57V19.67A3.57,3.57,0,0,0,20.91,16.1Zm.41,8.07a.48.48,0,0,1-.39.18H18.16a.52.52,0,0,1-.4-.18.57.57,0,0,1-.11-.42l.56-3a1.79,1.79,0,0,1-.5-1.24,1.83,1.83,0,0,1,3.66,0,1.76,1.76,0,0,1-.49,1.24l.55,3A.51.51,0,0,1,21.32,24.17Z"/><path class="cls-1" d="M32.38,5.58H5.72V30.25H32.38ZM25.5,22.39A4.6,4.6,0,0,1,20.91,27H18.18a4.61,4.61,0,0,1-4.6-4.6V19.67a4.61,4.61,0,0,1,2.18-3.9.58.58,0,0,1,0-.19V13.47a3.81,3.81,0,0,1,7.61,0v2.11a.47.47,0,0,1,0,.17,4.6,4.6,0,0,1,2.21,3.92Z"/></g></g></svg>