<svg xmlns="http://www.w3.org/2000/svg" width="90.43" height="73.65" viewBox="0 0 90.43 73.65"><defs><style>.cls-1{fill:#fff;}</style></defs><g id="Layer_2" data-name="Layer 2"><g id="Layer_1-2" data-name="Layer 1"><path class="cls-1" d="M48.42,55.73H44.29a.63.63,0,1,0,0,1.25h4.13a.63.63,0,0,0,0-1.25Z"/><circle class="cls-1" cx="70.89" cy="67.31" r="2.68"/><circle class="cls-1" cx="28.13" cy="67.31" r="2.68"/><path class="cls-1" d="M29.65,32.48l.3,0L40,42.79l2.25-2.2L32.39,30.44a2.85,2.85,0,0,0-2.25-3.66s0,0,0-.05v-18a.51.51,0,0,0-.5-.5.5.5,0,0,0-.5.5v18a.09.09,0,0,0,0,.05,2.87,2.87,0,0,0,.49,5.7Z"/><path class="cls-1" d="M89.82,18.44H66.38c.08-.27.17-.54.23-.82l0-.17c.09-.42.16-.85.22-1.29,0-.09,0-.18,0-.27A13.64,13.64,0,0,0,67,14.32a14.64,14.64,0,0,0-.64-4.26A14.33,14.33,0,0,0,52.69,0h0c-.42,0-.83,0-1.24.06l-.52.06a5.62,5.62,0,0,0-.57.09,15.19,15.19,0,0,0-1.49.32h0a14.14,14.14,0,0,0-5.8,3.24A29.32,29.32,0,0,0,15.46,55.5a16,16,0,0,0-1.17,8.2,3.52,3.52,0,0,0,.11.49H12.09v1.48H15a5,5,0,0,0,3.64,2.25H21.8a6.36,6.36,0,0,0,12.66,0l30.07-.07a6.35,6.35,0,0,0,12.67,0h6.3a.61.61,0,0,0,.58-.41,9.4,9.4,0,0,0,.5-3.92s0-.07,0-.1a.42.42,0,0,0,0-.16,26.19,26.19,0,0,0-.45-3.09,5,5,0,0,0-2-2.9h4.38a.62.62,0,0,0,.62-.62V30.28h2.68a.61.61,0,0,0,.61-.62V19.06A.61.61,0,0,0,89.82,18.44ZM58.71,11.15A.67.67,0,0,1,59.2,11h3.6a.69.69,0,0,1,.48.2h0a.66.66,0,0,1,.2.48.57.57,0,0,1,0,.18.94.94,0,0,1-.06.15l-3,6.38a.7.7,0,0,1-.62.38.65.65,0,0,1-.47-.2.67.67,0,0,1-.2-.48.76.76,0,0,1,0-.21c0-.05,0-.11.07-.17l2.58-5.36H59.2a.67.67,0,0,1-.49-.19.69.69,0,0,1-.19-.48A.66.66,0,0,1,58.71,11.15Zm19,33.59V38.27a.52.52,0,0,1,1,0v6.47a.52.52,0,1,1-1,0Zm-57,7.84c3.25-1.94,8.05-4.72,8.78-5.14a87.57,87.57,0,0,1,11.76-1.18v6.32Zm21.78-6.34A39.62,39.62,0,0,1,51,47a34.29,34.29,0,0,1,12.93,5.63H42.52ZM77,46.87H65.85v-16H77Zm-13.36,0H55.41c-.61-.2-1.25-.4-1.91-.58a29.11,29.11,0,0,0,5.17-16h4.95Zm-10-28.39,2.84-7.12a.7.7,0,0,1,.26-.3.69.69,0,0,1,.92.18.65.65,0,0,1,.07.66L54.86,19a.63.63,0,0,1-.28.32.73.73,0,0,1-.35.09.66.66,0,0,1-.57-.3A.71.71,0,0,1,53.61,18.48ZM47.16,16l3.62-4.75A.91.91,0,0,1,51,11a.66.66,0,0,1,.79.13.71.71,0,0,1,.17.47v4.15h.37a.85.85,0,0,1,.45.13.63.63,0,0,1,0,1,.67.67,0,0,1-.47.18H52v1a.64.64,0,0,1-.19.47.61.61,0,0,1-.48.21.62.62,0,0,1-.47-.21.67.67,0,0,1-.18-.47v-.62h0v-.37H47.71a.65.65,0,0,1-.67-.62A.64.64,0,0,1,47.16,16Zm-2-3.23a.91.91,0,0,0-.33-.39,1.08,1.08,0,0,0-1.07,0,1.05,1.05,0,0,0-.39.42,1.27,1.27,0,0,0-.14.58.68.68,0,0,1-.19.47.69.69,0,0,1-1,0,.65.65,0,0,1-.2-.47,2.44,2.44,0,0,1,.32-1.24,2.27,2.27,0,0,1,.87-.87,2.57,2.57,0,0,1,2.45,0,2.07,2.07,0,0,1,.81.85,2.72,2.72,0,0,1,.28,1.28,1.89,1.89,0,0,1-.14.69,3.83,3.83,0,0,1-.34.63,4.62,4.62,0,0,1-.41.53l-1.87,2.13h2.21a.65.65,0,0,1,.49.21.64.64,0,0,1,.19.47.67.67,0,0,1-.2.48.66.66,0,0,1-.48.2h-3.5a.68.68,0,0,1-.49-.2.7.7,0,0,1,0-1l2.67-3.12a3.65,3.65,0,0,0,.42-.59,1,1,0,0,0,.13-.47A1.51,1.51,0,0,0,45.19,12.76ZM5,30.11H6.16a.51.51,0,0,0,.5-.5.5.5,0,0,0-.5-.5H5A24.37,24.37,0,0,1,29.15,5.36v.76a.5.5,0,0,0,.5.5.5.5,0,0,0,.5-.5V5.38A24.14,24.14,0,0,1,40,7.8c-.07.14-.16.28-.22.42h0a13.74,13.74,0,0,0-.56,1.38l0,.06a12.33,12.33,0,0,0-.4,1.35c0,.06,0,.12,0,.17-.09.43-.17.86-.22,1.29,0,.09,0,.18,0,.27a13.64,13.64,0,0,0-.09,1.57A14.29,14.29,0,0,0,52.69,28.64h0c.33,0,.65,0,1-.05,0,.37,0,.74,0,1.12A24.19,24.19,0,0,1,48,45.23c-8.46-.9-18.38.92-18.85,1a.48.48,0,0,0-.2.07c-.07,0-6.07,3.51-9.54,5.59A24.34,24.34,0,0,1,5,30.11ZM18.67,66.67a3.69,3.69,0,0,1-3-2.31v-.17h-.05a1.83,1.83,0,0,1-.06-.25h7.09a6.38,6.38,0,0,0-.92,2.72Zm45.86-.12-30,.08a6.38,6.38,0,0,0-.92-2.69H65.45A6.23,6.23,0,0,0,64.53,66.55Zm-36.4,5.93A5.18,5.18,0,0,1,23,67.41a.5.5,0,0,0,0-.12,5.15,5.15,0,0,1,10.3,0,.5.5,0,0,0,0,.13A5.19,5.19,0,0,1,28.13,72.48Zm42.74,0a5.19,5.19,0,0,1-5.18-5.11.58.58,0,0,0,0-.19,5.18,5.18,0,0,1,5.14-5,5.12,5.12,0,0,1,5.13,5,.58.58,0,0,0,0,.19A5.19,5.19,0,0,1,70.87,72.48Zm12.18-6H77.2a6.5,6.5,0,0,0-.89-2.58h7A7.86,7.86,0,0,1,83.05,66.5Zm-.16-6.19c.17.86.29,1.65.38,2.39h-8a6.34,6.34,0,0,0-8.85,0H32.56a6.35,6.35,0,0,0-8.86,0H15.45c-.18-3.38.77-8,3.26-8.91h0a.58.58,0,0,0,.19,0h46.7L78.2,56.56S82.39,57.77,82.89,60.31Zm3-13.44H79.44V30.28H85.9Zm3.3-17.82H58.68c0-.58,0-1.15-.09-1.72.4-.18.79-.37,1.16-.58H89.2Zm0-3.54H61.58a14.3,14.3,0,0,0,2.3-2.3H89.2Zm0-3.54H64.76a13.08,13.08,0,0,0,.87-1.55h0c.09-.19.2-.47.31-.73H89.2Z"/><polygon class="cls-1" points="50.66 13.45 49.23 15.32 48.87 15.79 50.66 15.79 50.66 13.45"/></g></g></svg>