<?xml version="1.0" encoding="utf-8"?>
<!-- Generator: Adobe Illustrator 24.1.1, SVG Export Plug-In . SVG Version: 6.00 Build 0)  -->
<svg version="1.1" id="Layer_1" xmlns="http://www.w3.org/2000/svg" xmlns:xlink="http://www.w3.org/1999/xlink" x="0px" y="0px"
	 viewBox="0 0 922 922.3" style="enable-background:new 0 0 922 922.3;" xml:space="preserve">
<style type="text/css">
	.st0{fill:#0077C0;}
</style>
<g>
	<path class="st0" d="M670.6,605c8.9,0,16.7-0.6,24.4,0.2c7.7,0.7,15.4,2.2,22.8,4.4c4.1,1.2,8,4.2,11.1,7.3
		c59.6,59.4,119.1,118.9,178.7,178.4c13.3,13.3,17.8,28.8,11.8,46.6c-2.1,6.1-5.8,12.1-10.3,16.8c-16.2,17-33,33.5-49.7,50
		c-18.5,18.2-44.7,18.2-63-0.1c-59.6-59.5-119-119-178.6-178.5c-9.9-9.9-13-22.2-13-35.6c0-7.4,0-14.9,0-23.1
		c-116.2,82.8-240.7,101.5-373.1,49.3c-82.1-32.4-144.2-89.7-186.3-167.3C-35.4,403.9-5.3,223,111.5,108.1
		c132.8-130.6,332.3-140,472.8-43.6c88.6,60.8,143.1,144.7,160,251.1C761.2,421.8,735.3,518,670.6,605z M604.8,374.7
		c1.5-122.9-99.4-230.3-230-230.4C245.7,144.1,143.7,250,144.4,375c0.6,127.5,103,230,230.4,230.1
		C504.4,605.3,606.4,497.9,604.8,374.7z"/>
</g>
</svg>
